<svg viewBox="0 0 1200 800" xmlns="http://www.w3.org/2000/svg" width="1200" height="800">
<style>
text { font: 12px system-ui, sans-serif; fill: #222; }
.line { stroke: #999; stroke-opacity: .6; }
.node { fill: #3b82f6; }
</style>
<rect x="0" y="0" width="1200" height="800" fill="white" />
<line class="line" x1="0.0" y1="302.5" x2="1200.0" y2="0.0" stroke-width="5.58" /><line class="line" x1="0.0" y1="302.5" x2="0.0" y2="800.0" stroke-width="5.56" /><line class="line" x1="0.0" y1="800.0" x2="0.0" y2="401.3" stroke-width="5.45" /><line class="line" x1="0.0" y1="800.0" x2="1200.0" y2="0.0" stroke-width="5.45" /><line class="line" x1="0.0" y1="800.0" x2="1200.0" y2="420.9" stroke-width="5.44" /><line class="line" x1="0.0" y1="800.0" x2="0.0" y2="406.3" stroke-width="5.44" /><line class="line" x1="0.0" y1="302.5" x2="0.0" y2="302.5" stroke-width="5.25" /><line class="line" x1="0.0" y1="302.5" x2="1200.0" y2="0.0" stroke-width="5.19" /><line class="line" x1="0.0" y1="302.5" x2="1200.0" y2="420.9" stroke-width="5.16" /><line class="line" x1="0.0" y1="800.0" x2="0.0" y2="800.0" stroke-width="5.14" /><line class="line" x1="0.0" y1="800.0" x2="0.0" y2="364.6" stroke-width="5.06" /><line class="line" x1="0.0" y1="302.5" x2="849.4" y2="0.0" stroke-width="5.01" /><line class="line" x1="0.0" y1="800.0" x2="1200.0" y2="0.0" stroke-width="4.99" /><line class="line" x1="0.0" y1="800.0" x2="1200.0" y2="633.7" stroke-width="4.97" /><line class="line" x1="0.0" y1="302.5" x2="1200.0" y2="413.0" stroke-width="4.93" /><line class="line" x1="0.0" y1="302.5" x2="0.0" y2="406.3" stroke-width="4.91" /><line class="line" x1="0.0" y1="302.5" x2="0.0" y2="401.3" stroke-width="4.87" /><line class="line" x1="1200.0" y1="0.0" x2="0.0" y2="401.3" stroke-width="4.78" /><line class="line" x1="1200.0" y1="420.9" x2="1200.0" y2="0.0" stroke-width="4.78" /><line class="line" x1="1200.0" y1="0.0" x2="0.0" y2="406.3" stroke-width="4.78" /><line class="line" x1="1200.0" y1="420.9" x2="0.0" y2="401.3" stroke-width="4.76" /><line class="line" x1="1200.0" y1="420.9" x2="0.0" y2="406.3" stroke-width="4.76" /><line class="line" x1="0.0" y1="406.3" x2="0.0" y2="401.3" stroke-width="4.66" /><line class="line" x1="761.5" y1="0.0" x2="1200.0" y2="0.0" stroke-width="4.66" /><line class="line" x1="0.0" y1="302.5" x2="761.5" y2="0.0" stroke-width="4.66" /><line class="line" x1="1200.0" y1="0.0" x2="1200.0" y2="0.0" stroke-width="4.58" /><line class="line" x1="1200.0" y1="420.9" x2="1200.0" y2="0.0" stroke-width="4.56" /><line class="line" x1="0.0" y1="302.5" x2="1085.4" y2="800.0" stroke-width="4.50" /><line class="line" x1="761.5" y1="0.0" x2="800.8" y2="800.0" stroke-width="4.50" /><line class="line" x1="1200.0" y1="172.2" x2="133.4" y2="800.0" stroke-width="4.47" /><line class="line" x1="761.5" y1="0.0" x2="761.5" y2="0.0" stroke-width="4.47" /><line class="line" x1="0.0" y1="302.5" x2="92.1" y2="0.0" stroke-width="4.43" /><line class="line" x1="761.5" y1="0.0" x2="0.0" y2="0.0" stroke-width="4.43" /><line class="line" x1="761.5" y1="0.0" x2="932.5" y2="800.0" stroke-width="4.43" /><line class="line" x1="1200.0" y1="420.9" x2="0.0" y2="364.6" stroke-width="4.40" /><line class="line" x1="1200.0" y1="0.0" x2="0.0" y2="364.6" stroke-width="4.40" /><line class="line" x1="0.0" y1="800.0" x2="1085.4" y2="800.0" stroke-width="4.37" /><line class="line" x1="0.0" y1="401.3" x2="0.0" y2="364.6" stroke-width="4.37" /><line class="line" x1="0.0" y1="406.3" x2="0.0" y2="364.6" stroke-width="4.37" /><line class="line" x1="761.5" y1="0.0" x2="0.0" y2="0.0" stroke-width="4.37" /><line class="line" x1="1200.0" y1="0.0" x2="0.0" y2="406.3" stroke-width="4.33" /><line class="line" x1="1200.0" y1="0.0" x2="0.0" y2="401.3" stroke-width="4.30" /><line class="line" x1="0.0" y1="800.0" x2="1200.0" y2="413.0" stroke-width="4.30" /><line class="line" x1="1200.0" y1="0.0" x2="849.4" y2="0.0" stroke-width="4.26" /><line class="line" x1="1200.0" y1="0.0" x2="1200.0" y2="633.7" stroke-width="4.26" /><line class="line" x1="0.0" y1="401.3" x2="1200.0" y2="633.7" stroke-width="4.26" /><line class="line" x1="1200.0" y1="420.9" x2="1200.0" y2="633.7" stroke-width="4.26" /><line class="line" x1="0.0" y1="800.0" x2="849.4" y2="0.0" stroke-width="4.22" /><line class="line" x1="761.5" y1="0.0" x2="285.3" y2="0.0" stroke-width="4.18" /><line class="line" x1="0.0" y1="302.5" x2="557.7" y2="800.0" stroke-width="4.18" /><line class="line" x1="0.0" y1="406.3" x2="1200.0" y2="633.7" stroke-width="4.18" /><line class="line" x1="761.5" y1="0.0" x2="1200.0" y2="800.0" stroke-width="4.18" /><line class="line" x1="761.5" y1="0.0" x2="1200.0" y2="800.0" stroke-width="4.14" /><line class="line" x1="1200.0" y1="0.0" x2="1200.0" y2="413.0" stroke-width="4.14" /><line class="line" x1="0.0" y1="302.5" x2="1200.0" y2="633.7" stroke-width="4.09" /><line class="line" x1="849.4" y1="0.0" x2="1200.0" y2="413.0" stroke-width="4.09" /><line class="line" x1="1200.0" y1="0.0" x2="800.8" y2="800.0" stroke-width="4.04" /><line class="line" x1="0.0" y1="302.5" x2="253.9" y2="800.0" stroke-width="4.04" /><line class="line" x1="1200.0" y1="0.0" x2="761.5" y2="0.0" stroke-width="4.04" /><line class="line" x1="0.0" y1="302.5" x2="828.5" y2="0.0" stroke-width="4.00" /><line class="line" x1="1200.0" y1="0.0" x2="0.0" y2="0.0" stroke-width="4.00" /><line class="line" x1="0.0" y1="0.0" x2="932.5" y2="800.0" stroke-width="3.94" /><line class="line" x1="1200.0" y1="0.0" x2="1085.4" y2="800.0" stroke-width="3.94" /><line class="line" x1="1200.0" y1="420.9" x2="849.4" y2="0.0" stroke-width="3.94" /><line class="line" x1="1200.0" y1="142.6" x2="1200.0" y2="172.2" stroke-width="3.89" /><line class="line" x1="1200.0" y1="142.6" x2="133.4" y2="800.0" stroke-width="3.89" /><line class="line" x1="0.0" y1="302.5" x2="0.0" y2="364.6" stroke-width="3.89" /><line class="line" x1="0.0" y1="302.5" x2="1200.0" y2="0.0" stroke-width="3.89" /><line class="line" x1="1200.0" y1="420.9" x2="1200.0" y2="413.0" stroke-width="3.89" /><line class="line" x1="1200.0" y1="0.0" x2="92.1" y2="0.0" stroke-width="3.89" /><line class="line" x1="1200.0" y1="0.0" x2="1200.0" y2="0.0" stroke-width="3.89" /><line class="line" x1="1200.0" y1="0.0" x2="1085.4" y2="800.0" stroke-width="3.83" /><line class="line" x1="800.8" y1="800.0" x2="0.0" y2="0.0" stroke-width="3.83" /><line class="line" x1="761.5" y1="0.0" x2="253.9" y2="800.0" stroke-width="3.77" /><line class="line" x1="1200.0" y1="420.9" x2="1085.4" y2="800.0" stroke-width="3.77" /><line class="line" x1="1200.0" y1="172.2" x2="1200.0" y2="172.2" stroke-width="3.71" /><line class="line" x1="1200.0" y1="0.0" x2="761.5" y2="0.0" stroke-width="3.71" /><line class="line" x1="0.0" y1="302.5" x2="0.0" y2="0.0" stroke-width="3.71" /><line class="line" x1="0.0" y1="364.6" x2="1200.0" y2="633.7" stroke-width="3.71" /><line class="line" x1="0.0" y1="800.0" x2="253.9" y2="800.0" stroke-width="3.71" /><line class="line" x1="0.0" y1="401.3" x2="1085.4" y2="800.0" stroke-width="3.71" /><line class="line" x1="761.5" y1="0.0" x2="828.5" y2="0.0" stroke-width="3.71" /><line class="line" x1="1200.0" y1="0.0" x2="849.4" y2="0.0" stroke-width="3.71" /><line class="line" x1="1200.0" y1="0.0" x2="1200.0" y2="0.0" stroke-width="3.64" /><line class="line" x1="0.0" y1="0.0" x2="0.0" y2="0.0" stroke-width="3.64" /><line class="line" x1="1200.0" y1="420.9" x2="1200.0" y2="420.9" stroke-width="3.64" /><line class="line" x1="0.0" y1="406.3" x2="1200.0" y2="413.0" stroke-width="3.64" /><line class="line" x1="0.0" y1="800.0" x2="557.7" y2="800.0" stroke-width="3.64" /><line class="line" x1="0.0" y1="406.3" x2="1085.4" y2="800.0" stroke-width="3.64" /><line class="line" x1="1200.0" y1="0.0" x2="1200.0" y2="413.0" stroke-width="3.64" /><line class="line" x1="1200.0" y1="0.0" x2="557.7" y2="800.0" stroke-width="3.56" /><line class="line" x1="1200.0" y1="0.0" x2="253.9" y2="800.0" stroke-width="3.56" /><line class="line" x1="0.0" y1="406.3" x2="849.4" y2="0.0" stroke-width="3.56" /><line class="line" x1="0.0" y1="0.0" x2="1200.0" y2="800.0" stroke-width="3.56" /><line class="line" x1="133.4" y1="800.0" x2="133.4" y2="800.0" stroke-width="3.56" /><line class="line" x1="0.0" y1="0.0" x2="932.5" y2="800.0" stroke-width="3.56" /><line class="line" x1="0.0" y1="401.3" x2="0.0" y2="401.3" stroke-width="3.48" /><line class="line" x1="0.0" y1="406.3" x2="0.0" y2="406.3" stroke-width="3.48" /><line class="line" x1="1200.0" y1="0.0" x2="932.5" y2="800.0" stroke-width="3.48" /><line class="line" x1="1200.0" y1="420.9" x2="761.5" y2="0.0" stroke-width="3.48" /><line class="line" x1="0.0" y1="302.5" x2="0.0" y2="0.0" stroke-width="3.48" /><line class="line" x1="849.4" y1="0.0" x2="1085.4" y2="800.0" stroke-width="3.48" /><line class="line" x1="0.0" y1="0.0" x2="285.3" y2="0.0" stroke-width="3.48" /><line class="line" x1="1200.0" y1="0.0" x2="1200.0" y2="633.7" stroke-width="3.48" /><line class="line" x1="1200.0" y1="420.9" x2="253.9" y2="800.0" stroke-width="3.48" /><line class="line" x1="1200.0" y1="0.0" x2="253.9" y2="800.0" stroke-width="3.48" /><line class="line" x1="1200.0" y1="413.0" x2="1085.4" y2="800.0" stroke-width="3.48" /><line class="line" x1="1200.0" y1="800.0" x2="285.3" y2="0.0" stroke-width="3.48" /><line class="line" x1="828.5" y1="0.0" x2="1200.0" y2="142.6" stroke-width="3.48" /><line class="line" x1="761.5" y1="0.0" x2="1200.0" y2="142.6" stroke-width="3.48" /><line class="line" x1="800.8" y1="800.0" x2="932.5" y2="800.0" stroke-width="3.40" /><line class="line" x1="932.5" y1="800.0" x2="1200.0" y2="800.0" stroke-width="3.40" /><line class="line" x1="0.0" y1="401.3" x2="1200.0" y2="413.0" stroke-width="3.40" /><line class="line" x1="0.0" y1="401.3" x2="849.4" y2="0.0" stroke-width="3.40" /><line class="line" x1="1200.0" y1="0.0" x2="0.0" y2="0.0" stroke-width="3.40" /><line class="line" x1="849.4" y1="0.0" x2="92.1" y2="0.0" stroke-width="3.40" /><line class="line" x1="0.0" y1="302.5" x2="800.8" y2="800.0" stroke-width="3.40" /><line class="line" x1="828.5" y1="0.0" x2="1200.0" y2="172.2" stroke-width="3.30" /><line class="line" x1="932.5" y1="800.0" x2="1200.0" y2="800.0" stroke-width="3.30" /><line class="line" x1="761.5" y1="0.0" x2="849.4" y2="0.0" stroke-width="3.30" /><line class="line" x1="1200.0" y1="142.6" x2="0.0" y2="681.8" stroke-width="3.30" /><line class="line" x1="1200.0" y1="0.0" x2="92.1" y2="0.0" stroke-width="3.30" /><line class="line" x1="1200.0" y1="0.0" x2="1200.0" y2="0.0" stroke-width="3.30" /><line class="line" x1="761.5" y1="0.0" x2="49.9" y2="800.0" stroke-width="3.30" /><line class="line" x1="1200.0" y1="800.0" x2="285.3" y2="0.0" stroke-width="3.30" /><line class="line" x1="1200.0" y1="420.9" x2="92.1" y2="0.0" stroke-width="3.30" /><line class="line" x1="1200.0" y1="0.0" x2="0.0" y2="0.0" stroke-width="3.30" /><line class="line" x1="1200.0" y1="800.0" x2="1200.0" y2="800.0" stroke-width="3.30" /><line class="line" x1="0.0" y1="302.5" x2="1200.0" y2="800.0" stroke-width="3.30" /><line class="line" x1="0.0" y1="302.5" x2="49.9" y2="800.0" stroke-width="3.30" /><line class="line" x1="133.4" y1="800.0" x2="0.0" y2="681.8" stroke-width="3.30" /><line class="line" x1="0.0" y1="800.0" x2="761.5" y2="0.0" stroke-width="3.30" /><line class="line" x1="0.0" y1="302.5" x2="1200.0" y2="172.2" stroke-width="3.20" /><line class="line" x1="0.0" y1="0.0" x2="1200.0" y2="800.0" stroke-width="3.20" /><line class="line" x1="1200.0" y1="0.0" x2="0.0" y2="364.6" stroke-width="3.20" /><line class="line" x1="1200.0" y1="413.0" x2="557.7" y2="800.0" stroke-width="3.20" /><line class="line" x1="1200.0" y1="0.0" x2="828.5" y2="0.0" stroke-width="3.20" /><line class="line" x1="761.5" y1="0.0" x2="92.1" y2="0.0" stroke-width="3.20" /><line class="line" x1="828.5" y1="0.0" x2="0.0" y2="681.8" stroke-width="3.20" /><line class="line" x1="1200.0" y1="0.0" x2="1200.0" y2="0.0" stroke-width="3.20" /><line class="line" x1="1200.0" y1="142.6" x2="1200.0" y2="142.6" stroke-width="3.20" /><line class="line" x1="1200.0" y1="420.9" x2="1200.0" y2="142.6" stroke-width="3.08" /><line class="line" x1="1200.0" y1="172.2" x2="0.0" y2="681.8" stroke-width="3.08" /><line class="line" x1="761.5" y1="0.0" x2="0.0" y2="681.8" stroke-width="3.08" /><line class="line" x1="1200.0" y1="142.6" x2="49.9" y2="800.0" stroke-width="3.08" /><line class="line" x1="1200.0" y1="413.0" x2="92.1" y2="0.0" stroke-width="3.08" /><line class="line" x1="1200.0" y1="633.7" x2="1085.4" y2="800.0" stroke-width="3.08" /><line class="line" x1="849.4" y1="0.0" x2="557.7" y2="800.0" stroke-width="3.08" /><line class="line" x1="0.0" y1="401.3" x2="253.9" y2="800.0" stroke-width="3.08" /><line class="line" x1="0.0" y1="302.5" x2="285.3" y2="0.0" stroke-width="3.08" /><line class="line" x1="0.0" y1="406.3" x2="253.9" y2="800.0" stroke-width="3.08" /><line class="line" x1="253.9" y1="800.0" x2="285.3" y2="0.0" stroke-width="3.08" /><line class="line" x1="1200.0" y1="0.0" x2="1200.0" y2="0.0" stroke-width="3.08" /><line class="line" x1="0.0" y1="800.0" x2="1200.0" y2="0.0" stroke-width="3.08" /><line class="line" x1="800.8" y1="800.0" x2="0.0" y2="0.0" stroke-width="3.08" /><line class="line" x1="0.0" y1="302.5" x2="0.0" y2="681.8" stroke-width="3.08" /><line class="line" x1="849.4" y1="0.0" x2="1200.0" y2="142.6" stroke-width="3.08" /><line class="line" x1="253.9" y1="800.0" x2="0.0" y2="0.0" stroke-width="3.08" /><line class="line" x1="92.1" y1="0.0" x2="1200.0" y2="142.6" stroke-width="2.95" /><line class="line" x1="849.4" y1="0.0" x2="828.5" y2="0.0" stroke-width="2.95" /><line class="line" x1="253.9" y1="800.0" x2="1200.0" y2="142.6" stroke-width="2.95" /><line class="line" x1="0.0" y1="0.0" x2="0.0" y2="0.0" stroke-width="2.95" /><line class="line" x1="253.9" y1="800.0" x2="49.9" y2="800.0" stroke-width="2.95" /><line class="line" x1="0.0" y1="0.0" x2="92.1" y2="0.0" stroke-width="2.95" /><line class="line" x1="1085.4" y1="800.0" x2="557.7" y2="800.0" stroke-width="2.95" /><line class="line" x1="1200.0" y1="0.0" x2="253.9" y2="800.0" stroke-width="2.95" /><line class="line" x1="1200.0" y1="0.0" x2="800.8" y2="800.0" stroke-width="2.95" /><line class="line" x1="828.5" y1="0.0" x2="133.4" y2="800.0" stroke-width="2.95" /><line class="line" x1="0.0" y1="364.6" x2="0.0" y2="364.6" stroke-width="2.95" /><line class="line" x1="1200.0" y1="420.9" x2="557.7" y2="800.0" stroke-width="2.95" /><line class="line" x1="1200.0" y1="0.0" x2="0.0" y2="0.0" stroke-width="2.95" /><line class="line" x1="0.0" y1="302.5" x2="133.4" y2="800.0" stroke-width="2.95" /><line class="line" x1="92.1" y1="0.0" x2="49.9" y2="800.0" stroke-width="2.95" /><line class="line" x1="1200.0" y1="0.0" x2="0.0" y2="0.0" stroke-width="2.95" /><line class="line" x1="849.4" y1="0.0" x2="49.9" y2="800.0" stroke-width="2.95" /><line class="line" x1="1200.0" y1="420.9" x2="49.9" y2="800.0" stroke-width="2.95" /><line class="line" x1="253.9" y1="800.0" x2="828.5" y2="0.0" stroke-width="2.95" /><line class="line" x1="0.0" y1="302.5" x2="1200.0" y2="800.0" stroke-width="2.79" /><line class="line" x1="828.5" y1="0.0" x2="828.5" y2="0.0" stroke-width="2.79" /><line class="line" x1="1200.0" y1="0.0" x2="1200.0" y2="142.6" stroke-width="2.79" /><circle class="node" cx="0.0" cy="302.5" r="9.6"/><text x="0.0" y="302.5" dx="6" dy="4">mathrm</text><circle class="node" cx="0.0" cy="800.0" r="9.3"/><text x="0.0" y="800.0" dx="6" dy="4">bmatrix</text><circle class="node" cx="1200.0" cy="420.9" r="8.6"/><text x="1200.0" y="420.9" dx="6" dy="4">end</text><circle class="node" cx="1200.0" cy="0.0" r="8.6"/><text x="1200.0" y="0.0" dx="6" dy="4">begin</text><circle class="node" cx="1200.0" cy="0.0" r="8.6"/><text x="1200.0" y="0.0" dx="6" dy="4">mathrm mathrm</text><circle class="node" cx="761.5" cy="0.0" r="8.6"/><text x="761.5" y="0.0" dx="6" dy="4">fibonacci</text><circle class="node" cx="0.0" cy="406.3" r="8.3"/><text x="0.0" y="406.3" dx="6" dy="4">end bmatrix</text><circle class="node" cx="0.0" cy="401.3" r="8.3"/><text x="0.0" y="401.3" dx="6" dy="4">begin bmatrix</text><circle class="node" cx="849.4" cy="0.0" r="7.8"/><text x="849.4" y="0.0" dx="6" dy="4">n-1</text><circle class="node" cx="0.0" cy="364.6" r="7.6"/><text x="0.0" y="364.6" dx="6" dy="4">bmatrix end</text><circle class="node" cx="1200.0" cy="413.0" r="7.6"/><text x="1200.0" y="413.0" dx="6" dy="4">mathrm n-1</text><circle class="node" cx="1200.0" cy="0.0" r="7.5"/><text x="1200.0" y="0.0" dx="6" dy="4">numbers</text><circle class="node" cx="1200.0" cy="633.7" r="7.5"/><text x="1200.0" y="633.7" dx="6" dy="4">bmatrix begin</text><circle class="node" cx="1085.4" cy="800.0" r="7.2"/><text x="1085.4" y="800.0" dx="6" dy="4">bmatrix mathrm</text><circle class="node" cx="253.9" cy="800.0" r="7.2"/><text x="253.9" y="800.0" dx="6" dy="4">matrix</text><circle class="node" cx="800.8" cy="800.0" r="7.2"/><text x="800.8" y="800.0" dx="6" dy="4">fibonacci numbers</text><circle class="node" cx="0.0" cy="0.0" r="7.2"/><text x="0.0" y="0.0" dx="6" dy="4">number</text><circle class="node" cx="828.5" cy="0.0" r="7.0"/><text x="828.5" y="0.0" dx="6" dy="4">here</text><circle class="node" cx="92.1" cy="0.0" r="7.0"/><text x="92.1" y="0.0" dx="6" dy="4">aligned</text><circle class="node" cx="0.0" cy="0.0" r="7.0"/><text x="0.0" y="0.0" dx="6" dy="4">rust</text><circle class="node" cx="932.5" cy="800.0" r="6.8"/><text x="932.5" y="800.0" dx="6" dy="4">calculate</text><circle class="node" cx="1200.0" cy="142.6" r="6.8"/><text x="1200.0" y="142.6" dx="6" dy="4">frac</text><circle class="node" cx="1200.0" cy="800.0" r="6.6"/><text x="1200.0" y="800.0" dx="6" dy="4">algorithm</text><circle class="node" cx="1200.0" cy="172.2" r="6.6"/><text x="1200.0" y="172.2" dx="6" dy="4">phi</text><circle class="node" cx="133.4" cy="800.0" r="6.6"/><text x="133.4" y="800.0" dx="6" dy="4">theta</text><circle class="node" cx="1200.0" cy="800.0" r="6.6"/><text x="1200.0" y="800.0" dx="6" dy="4">fibonacci number</text><circle class="node" cx="0.0" cy="681.8" r="6.6"/><text x="0.0" y="681.8" dx="6" dy="4">two</text><circle class="node" cx="49.9" cy="800.0" r="6.3"/><text x="49.9" y="800.0" dx="6" dy="4">get</text><circle class="node" cx="285.3" cy="0.0" r="6.3"/><text x="285.3" y="0.0" dx="6" dy="4">type</text><circle class="node" cx="557.7" cy="800.0" r="6.3"/><text x="557.7" y="800.0" dx="6" dy="4">n-1 end</text></svg>